HIERARCHY
ROOT Hips
{
 OFFSET 0.000000 0.000000 0.000000
 CHANNELS 6 Xposition Yposition Zposition Yrotation Xrotation Zrotation
 JOINT Chest
 {
  OFFSET 0.000000 9.585900 0.002600
  CHANNELS 3 Yrotation Xrotation Zrotation
  JOINT Chest2
  {
   OFFSET 0.000000 9.601200 -0.005300
   CHANNELS 3 Yrotation Xrotation Zrotation
   JOINT Chest3
   {
    OFFSET 0.000000 9.561800 0.000000
    CHANNELS 3 Yrotation Xrotation Zrotation
    JOINT Chest4
    {
     OFFSET 0.000000 9.552100 0.000000
     CHANNELS 3 Yrotation Xrotation Zrotation
     JOINT Neck
     {
      OFFSET 0.000000 14.453000 0.000000
      CHANNELS 3 Yrotation Xrotation Zrotation
      JOINT Head
      {
       OFFSET 0.000000 8.936500 -0.011300
       CHANNELS 3 Yrotation Xrotation Zrotation
       End Site
       {
        OFFSET 0.000000 17.073600 -0.006000
       }
      }
     }
     JOINT RightCollar
     {
      OFFSET -2.921100 9.558500 0.000000
      CHANNELS 3 Yrotation Xrotation Zrotation
      JOINT RightShoulder
      {
       OFFSET -13.519700 0.000000 0.000000
       CHANNELS 3 Yrotation Xrotation Zrotation
       JOINT RightElbow
       {
        OFFSET 0.000000 -29.696600 0.000000
        CHANNELS 3 Yrotation Xrotation Zrotation
        JOINT RightWrist
        {
         OFFSET 0.000000 -24.004700 0.000000
         CHANNELS 3 Yrotation Xrotation Zrotation
         End Site
         {
          OFFSET 0.000000 -17.728500 0.000000
         }
        }
       }
      }
     }
     JOINT LeftCollar
     {
      OFFSET 2.921100 9.558500 0.000000
      CHANNELS 3 Yrotation Xrotation Zrotation
      JOINT LeftShoulder
      {
       OFFSET 13.519700 0.000000 0.000000
       CHANNELS 3 Yrotation Xrotation Zrotation
       JOINT LeftElbow
       {
        OFFSET 0.000000 -29.696600 0.000000
        CHANNELS 3 Yrotation Xrotation Zrotation
        JOINT LeftWrist
        {
         OFFSET 0.000000 -24.004700 0.000000
         CHANNELS 3 Yrotation Xrotation Zrotation
         End Site
         {
          OFFSET 0.000000 -17.728500 0.000000
         }
        }
       }
      }
     }
    }
   }
  }
 }
 JOINT RightHip
 {
  OFFSET -7.771700 -0.012900 -0.001300
  CHANNELS 3 Yrotation Xrotation Zrotation
  JOINT RightKnee
  {
   OFFSET 0.000000 -40.869800 0.001200
   CHANNELS 3 Yrotation Xrotation Zrotation
   JOINT RightAnkle
   {
    OFFSET 0.000000 -39.717900 0.002100
    CHANNELS 3 Yrotation Xrotation Zrotation
    JOINT RightToe
    {
     OFFSET 0.000000 -4.965400 11.033500
     CHANNELS 3 Yrotation Xrotation Zrotation
     End Site
     {
      OFFSET 0.000000 -1.423100 5.872300
     }
    }
   }
  }
 }
 JOINT LeftHip
 {
  OFFSET 7.771700 -0.012900 -0.001300
  CHANNELS 3 Yrotation Xrotation Zrotation
  JOINT LeftKnee
  {
   OFFSET 0.000000 -40.869800 0.001200
   CHANNELS 3 Yrotation Xrotation Zrotation
   JOINT LeftAnkle
   {
    OFFSET 0.000000 -39.717900 0.002100
    CHANNELS 3 Yrotation Xrotation Zrotation
    JOINT LeftToe
    {
     OFFSET 0.000000 -4.965400 11.033500
     CHANNELS 3 Yrotation Xrotation Zrotation
     End Site
     {
      OFFSET 0.000000 -1.423100 5.872300
     }
    }
   }
  }
 }
}
MOTION
Frames: 12
Frame Time: 0.008333
-29.897809 62.128548 12.455513 177.049138 -51.373876 -1.058046 3.794519 27.604839 0.851673 0.568467 4.850982 0.122463 0.911170 7.655937 0.198325 2.849578 22.302123 0.946499 1.741616 14.923177 3.428857 1.998535 -8.103775 5.720396 7.676290 5.201297 5.385170 -2.919997 -8.170905 -14.773298 -95.352168 -55.006580 136.447044 7.281376 10.194780 -0.066495 -11.989445 1.722436 -1.320597 -4.520039 -6.296180 18.090315 118.845636 -70.267249 -145.931604 6.714107 8.410948 -14.312888 2.588441 -15.431802 -5.838945 -0.995369 61.037486 -4.725195 1.723531 -7.130437 10.490524 0.174005 -0.446575 0.073248 -3.517171 -12.753100 2.719282 22.946249 77.063351 23.073029 0.785211 -11.873140 -2.864407 0.177244 0.575552 0.081662
-29.898593 62.129744 12.454057 177.055791 -51.367250 -1.059267 3.778153 27.604455 0.855655 0.568163 4.849675 0.125372 0.914036 7.653251 0.185533 2.835254 22.306052 0.992252 1.745230 14.911252 3.371084 2.038299 -8.155842 5.657621 7.685699 5.194199 5.348376 -2.944049 -8.162878 -14.735902 -95.323435 -55.045161 136.435162 7.292399 10.193595 -0.066900 -11.995705 1.704903 -1.340661 -4.514195 -6.303174 18.074258 118.835437 -70.274463 -145.913238 6.720912 8.404778 -14.322662 2.586129 -15.435181 -5.844067 -0.988629 61.036428 -4.718387 1.720981 -7.130847 10.493721 0.171714 -0.446486 0.070655 -3.524706 -12.758341 2.719233 22.927682 77.063177 23.047962 0.785059 -11.871811 -2.862766 0.181643 0.572069 0.081757
-29.899018 62.130808 12.452580 177.060992 -51.359532 -1.060953 3.767022 27.600895 0.865550 0.570867 4.846759 0.113717 0.908509 7.654339 0.202335 2.831328 22.305407 0.975986 1.759115 14.888604 3.365729 2.076795 -8.198162 5.590573 7.685802 5.189818 5.351127 -2.955171 -8.155474 -14.718180 -95.305749 -55.056744 136.419777 7.300109 10.190049 -0.065233 -12.010766 1.701324 -1.311990 -4.506200 -6.309074 18.052613 118.834500 -70.286240 -145.911144 6.715052 8.401977 -14.343426 2.585297 -15.440178 -5.847839 -0.988038 61.036330 -4.715874 1.721891 -7.132130 10.493762 0.169536 -0.446131 0.071053 -3.531565 -12.765177 2.717471 22.913095 77.064114 23.030682 0.794665 -11.869412 -2.869165 0.177724 0.568465 0.085894
-29.899866 62.131439 12.451288 177.061285 -51.349037 -1.055897 3.753536 27.596589 0.867408 0.569052 4.845920 0.115544 0.905563 7.653102 0.205217 2.824318 22.304257 0.983478 1.789362 14.839560 3.334550 2.118944 -8.234061 5.507173 7.693193 5.179388 5.350181 -2.966884 -8.140304 -14.717204 -95.294919 -55.076234 136.417954 7.302563 10.186939 -0.067380 -12.016344 1.691467 -1.304777 -4.499124 -6.318577 18.036328 118.798532 -70.282430 -145.871761 6.710052 8.404479 -14.350972 2.587783 -15.449383 -5.853971 -0.992566 61.037706 -4.718377 1.721581 -7.134330 10.489216 0.171385 -0.443132 0.076541 -3.533891 -12.775024 2.714776 22.898884 77.064821 23.012993 0.790657 -11.867870 -2.866010 0.181232 0.566053 0.084509
-29.899656 62.132267 12.449865 177.052605 -51.340477 -1.049597 3.746452 27.590450 0.875592 0.555418 4.845387 0.134497 0.900837 7.650661 0.203812 2.809751 22.302259 0.994824 1.802390 14.833505 3.273439 2.176433 -8.293080 5.433228 7.712192 5.177218 5.325411 -2.972589 -8.126137 -14.725492 -95.291843 -55.097462 136.420927 7.302840 10.185980 -0.069549 -12.008632 1.683883 -1.323393 -4.498307 -6.331950 18.027404 118.748470 -70.273171 -145.814140 6.707907 8.403292 -14.356023 2.594884 -15.457857 -5.854908 -0.996344 61.039956 -4.717432 1.721286 -7.135496 10.482101 0.166759 -0.441952 0.080359 -3.532024 -12.782617 2.718066 22.867394 77.071694 22.976637 0.800872 -11.870391 -2.860380 0.178272 0.563846 0.080611
-29.900036 62.133356 12.448177 177.051310 -51.334579 -1.044787 3.731054 27.586406 0.878355 0.561678 4.844375 0.129946 0.900902 7.650464 0.198708 2.807664 22.302135 0.996377 1.811560 14.820705 3.264987 2.234456 -8.356919 5.357254 7.716568 5.165513 5.342921 -2.973097 -8.114694 -14.739005 -95.275737 -55.091663 136.404556 7.303197 10.187818 -0.076540 -12.016264 1.682996 -1.290998 -4.496424 -6.341838 18.008142 118.749872 -70.291511 -145.825913 6.736041 8.383216 -14.336783 2.599970 -15.462853 -5.861942 -0.995858 61.042675 -4.709503 1.717052 -7.136433 10.475087 0.165739 -0.440326 0.080553 -3.534156 -12.787652 2.716705 22.830569 77.076285 22.936382 0.804076 -11.868897 -2.855452 0.175258 0.559468 0.078083
-29.899917 62.134426 12.446587 177.050840 -51.329159 -1.042831 3.723993 27.584269 0.893647 0.554155 4.841712 0.136386 0.901169 7.647364 0.195957 2.797177 22.298809 1.002418 1.841948 14.771704 3.230858 2.265445 -8.381490 5.282054 7.722845 5.165413 5.331500 -2.971628 -8.103651 -14.751680 -95.251366 -55.062208 136.356550 7.326500 10.200313 -0.059224 -12.019550 1.682911 -1.299518 -4.489264 -6.346071 17.986123 118.741495 -70.292142 -145.815010 6.731558 8.385348 -14.355600 2.602369 -15.466861 -5.865377 -0.989025 61.043730 -4.699056 1.712807 -7.136770 10.472377 0.166102 -0.440216 0.079590 -3.537109 -12.791786 2.717030 22.802008 77.079497 22.904450 0.811744 -11.868240 -2.853839 0.170787 0.557062 0.077024
-29.899919 62.134800 12.445570 177.048917 -51.319548 -1.038381 3.703175 27.578429 0.914317 0.556138 4.837290 0.129164 0.897988 7.646639 0.192228 2.781648 22.287389 1.047024 1.858420 14.753673 3.150086 2.312875 -8.430950 5.200124 7.735477 5.177640 5.277419 -2.972955 -8.094392 -14.752259 -95.243070 -55.074328 136.344121 7.303972 10.199326 -0.059867 -12.009552 1.681203 -1.370877 -4.503581 -6.356799 18.008028 118.696744 -70.292454 -145.772012 6.740691 8.372027 -14.355676 2.601859 -15.475850 -5.868780 -0.981242 61.044131 -4.693157 1.712084 -7.139451 10.472019 0.167357 -0.437716 0.078422 -3.538338 -12.800415 2.715973 22.791492 77.080283 22.891328 0.813916 -11.869837 -2.853415 0.170267 0.557690 0.076665
-29.900068 62.134967 12.444742 177.036722 -51.309391 -1.024399 3.705173 27.568964 0.912278 0.551255 4.834311 0.140645 0.892692 7.645572 0.201285 2.775062 22.280917 1.054522 1.882304 14.718486 3.108720 2.356029 -8.471901 5.117129 7.738546 5.187414 5.251395 -2.979029 -8.088773 -14.724142 -95.239036 -55.101509 136.342657 7.303336 10.204000 -0.055975 -12.013172 1.678427 -1.376053 -4.524524 -6.364993 18.023859 118.594127 -70.287907 -145.673697 6.757639 8.334306 -14.347535 2.609021 -15.486353 -5.872080 -0.987700 61.045284 -4.701336 1.713182 -7.143727 10.471696 0.169118 -0.433600 0.078771 -3.531241 -12.810231 2.712677 22.786802 77.080896 22.884859 0.818217 -11.866348 -2.850169 0.167073 0.553702 0.073527
-29.899571 62.135728 12.443404 177.029922 -51.305158 -1.017893 3.698999 27.561730 0.925984 0.555818 4.836486 0.126300 0.885312 7.639376 0.221615 2.770270 22.282907 1.043686 1.891788 14.705475 3.087833 2.422364 -8.541993 5.024452 7.740265 5.189190 5.245669 -2.980292 -8.083052 -14.723678 -95.241697 -55.088694 136.337524 7.309904 10.219341 -0.047283 -12.017228 1.675482 -1.359925 -4.536283 -6.374219 18.024960 118.497916 -70.275334 -145.578668 6.787638 8.302498 -14.377717 2.611353 -15.491025 -5.872268 -0.993435 61.047415 -4.707325 1.714812 -7.146060 10.469872 0.170408 -0.432963 0.078878 -3.528045 -12.813360 2.713149 22.779843 77.082393 22.876510 0.822891 -11.865888 -2.849252 0.165053 0.551469 0.072341
-29.898996 62.136304 12.442050 177.024418 -51.301043 -1.012749 3.682757 27.545504 0.947681 0.559318 4.841787 0.113555 0.883066 7.635931 0.224758 2.767862 22.287038 1.035170 1.922239 14.653880 3.061146 2.468974 -8.576906 4.940384 7.750844 5.171775 5.279150 -2.988038 -8.063358 -14.751527 -95.231109 -55.093836 136.338169 7.312008 10.221264 -0.054117 -12.021549 1.672924 -1.320247 -4.541570 -6.383668 17.997250 118.415802 -70.260621 -145.491093 6.798072 8.287550 -14.378530 2.611599 -15.495974 -5.872675 -0.992246 61.050282 -4.706688 1.713780 -7.148788 10.466688 0.172378 -0.432408 0.079481 -3.526702 -12.816047 2.711566 22.777958 77.083373 22.876423 0.826099 -11.866893 -2.849444 0.164204 0.551142 0.069772
-29.896938 62.136937 12.440496 177.016621 -51.298786 -1.014860 3.685099 27.532414 0.969825 0.556782 4.842008 0.113715 0.876428 7.611689 0.245727 2.758975 22.271408 1.051952 1.945487 14.637992 2.989531 2.517158 -8.606884 4.855360 7.747088 5.208568 5.270701 -2.987434 -8.046105 -14.773611 -95.234867 -55.102690 136.349363 7.310249 10.219296 -0.049231 -12.018732 1.702845 -1.339098 -4.558417 -6.392302 17.982979 118.316982 -70.243310 -145.386007 6.850291 8.239204 -14.413740 2.610474 -15.499081 -5.863624 -0.988695 61.051734 -4.703545 1.715418 -7.150041 10.463539 0.170960 -0.432895 0.079243 -3.526303 -12.816181 2.715646 22.790190 77.083790 22.884640 0.877754 -11.869617 -2.861021 0.168369 0.554134 0.075448
